<?xml version="1.0" encoding="UTF-8"?>
<svg xmlns="http://www.w3.org/2000/svg" xmlns:xlink="http://www.w3.org/1999/xlink" viewBox="0 0 96 96" width="96px" height="96px">
<g id="surface8551213">
<path style=" stroke:none;fill-rule:nonzero;fill:rgb(100%,100%,100%);fill-opacity:1;" d="M 48 26 C 46.894531 26 46 26.894531 46 28 L 46 46 L 28 46 C 26.894531 46 26 46.894531 26 48 C 26 49.105469 26.894531 50 28 50 L 46 50 L 46 68 C 46 69.105469 46.894531 70 48 70 C 49.105469 70 50 69.105469 50 68 L 50 50 L 68 50 C 69.105469 50 70 49.105469 70 48 C 70 46.894531 69.105469 46 68 46 L 50 46 L 50 28 C 50 26.894531 49.105469 26 48 26 Z M 48 26 "/>
</g>
</svg>
